<mxfile host="app.diagrams.net" agent="Mozilla/5.0 (Windows NT 10.0; Win64; x64) AppleWebKit/537.36 (KHTML, like Gecko) Chrome/131.0.0.0 Safari/537.36" version="24.8.6">
  <diagram name="Page-1" id="QA2YgZ5qAtqiSVzFPLgG">
    <mxGraphModel dx="2109" dy="686" grid="1" gridSize="10" guides="1" tooltips="1" connect="1" arrows="1" fold="1" page="1" pageScale="1" pageWidth="850" pageHeight="1100" math="0" shadow="0">
      <root>
        <mxCell id="0" />
        <mxCell id="1" parent="0" />
        <mxCell id="23e7rN1AAgiDRxN-T140-6" style="edgeStyle=orthogonalEdgeStyle;rounded=0;orthogonalLoop=1;jettySize=auto;html=1;entryX=0.5;entryY=0;entryDx=0;entryDy=0;" edge="1" parent="1" source="23e7rN1AAgiDRxN-T140-1" target="23e7rN1AAgiDRxN-T140-2">
          <mxGeometry relative="1" as="geometry" />
        </mxCell>
        <mxCell id="23e7rN1AAgiDRxN-T140-7" style="edgeStyle=orthogonalEdgeStyle;rounded=0;orthogonalLoop=1;jettySize=auto;html=1;entryX=0.5;entryY=0;entryDx=0;entryDy=0;" edge="1" parent="1" source="23e7rN1AAgiDRxN-T140-1" target="23e7rN1AAgiDRxN-T140-3">
          <mxGeometry relative="1" as="geometry" />
        </mxCell>
        <mxCell id="23e7rN1AAgiDRxN-T140-8" style="edgeStyle=orthogonalEdgeStyle;rounded=0;orthogonalLoop=1;jettySize=auto;html=1;entryX=0.5;entryY=0;entryDx=0;entryDy=0;" edge="1" parent="1" source="23e7rN1AAgiDRxN-T140-1" target="23e7rN1AAgiDRxN-T140-4">
          <mxGeometry relative="1" as="geometry" />
        </mxCell>
        <mxCell id="23e7rN1AAgiDRxN-T140-9" style="edgeStyle=orthogonalEdgeStyle;rounded=0;orthogonalLoop=1;jettySize=auto;html=1;" edge="1" parent="1" source="23e7rN1AAgiDRxN-T140-1" target="23e7rN1AAgiDRxN-T140-5">
          <mxGeometry relative="1" as="geometry" />
        </mxCell>
        <mxCell id="23e7rN1AAgiDRxN-T140-1" value="&lt;b&gt;Jenkins&lt;/b&gt;" style="rounded=1;whiteSpace=wrap;html=1;fillColor=#dae8fc;strokeColor=#6c8ebf;" vertex="1" parent="1">
          <mxGeometry x="300" y="70" width="120" height="60" as="geometry" />
        </mxCell>
        <mxCell id="23e7rN1AAgiDRxN-T140-10" style="edgeStyle=orthogonalEdgeStyle;rounded=0;orthogonalLoop=1;jettySize=auto;html=1;entryX=0;entryY=0.5;entryDx=0;entryDy=0;" edge="1" parent="1" source="23e7rN1AAgiDRxN-T140-2" target="23e7rN1AAgiDRxN-T140-3">
          <mxGeometry relative="1" as="geometry" />
        </mxCell>
        <mxCell id="23e7rN1AAgiDRxN-T140-2" value="&lt;b&gt;Git&lt;/b&gt;" style="rounded=0;whiteSpace=wrap;html=1;fillColor=#e1d5e7;strokeColor=#9673a6;" vertex="1" parent="1">
          <mxGeometry x="-40" y="200" width="120" height="60" as="geometry" />
        </mxCell>
        <mxCell id="23e7rN1AAgiDRxN-T140-11" style="edgeStyle=orthogonalEdgeStyle;rounded=0;orthogonalLoop=1;jettySize=auto;html=1;entryX=0;entryY=0.5;entryDx=0;entryDy=0;" edge="1" parent="1" source="23e7rN1AAgiDRxN-T140-3" target="23e7rN1AAgiDRxN-T140-4">
          <mxGeometry relative="1" as="geometry" />
        </mxCell>
        <mxCell id="23e7rN1AAgiDRxN-T140-3" value="Nexus" style="rounded=0;whiteSpace=wrap;html=1;fillColor=#d5e8d4;strokeColor=#82b366;" vertex="1" parent="1">
          <mxGeometry x="140" y="200" width="120" height="60" as="geometry" />
        </mxCell>
        <mxCell id="23e7rN1AAgiDRxN-T140-12" style="edgeStyle=orthogonalEdgeStyle;rounded=0;orthogonalLoop=1;jettySize=auto;html=1;entryX=0;entryY=0.5;entryDx=0;entryDy=0;" edge="1" parent="1" source="23e7rN1AAgiDRxN-T140-4" target="23e7rN1AAgiDRxN-T140-5">
          <mxGeometry relative="1" as="geometry" />
        </mxCell>
        <mxCell id="23e7rN1AAgiDRxN-T140-4" value="Sonar" style="rounded=0;whiteSpace=wrap;html=1;fillColor=#dae8fc;strokeColor=#6c8ebf;" vertex="1" parent="1">
          <mxGeometry x="300" y="200" width="120" height="60" as="geometry" />
        </mxCell>
        <mxCell id="23e7rN1AAgiDRxN-T140-5" value="NodeJS" style="rounded=0;whiteSpace=wrap;html=1;fillColor=#d5e8d4;strokeColor=#82b366;" vertex="1" parent="1">
          <mxGeometry x="530" y="200" width="120" height="60" as="geometry" />
        </mxCell>
      </root>
    </mxGraphModel>
  </diagram>
</mxfile>
